<?xml version="1.0" standalone="no"?>
<!DOCTYPE svg PUBLIC "-//W3C//DTD SVG 20010904//EN"
 "http://www.w3.org/TR/2001/REC-SVG-20010904/DTD/svg10.dtd">
<svg version="1.0" xmlns="http://www.w3.org/2000/svg"
 width="1024.000000pt" height="1024.000000pt" viewBox="0 0 1024.000000 1024.000000"
 preserveAspectRatio="xMidYMid meet">

<g transform="translate(0.000000,1024.000000) scale(0.100000,-0.100000)"
fill="#000000" stroke="none">
<path d="M4730 8350 c0 -5 7 -7 15 -4 8 4 15 8 15 10 0 2 -7 4 -15 4 -8 0 -15
-4 -15 -10z"/>
<path d="M4858 8313 c7 -3 16 -2 19 1 4 3 -2 6 -13 5 -11 0 -14 -3 -6 -6z"/>
<path d="M5523 8041 c110 -16 71 -24 -87 -18 -224 9 -236 1 -236 -153 0 -58
-4 -89 -10 -85 -5 3 -10 2 -10 -3 0 -6 -15 -15 -32 -22 -18 -7 -28 -14 -22
-16 6 -3 23 2 39 10 33 17 45 13 45 -15 0 -28 26 -75 45 -83 9 -3 136 -6 282
-6 163 0 263 -4 261 -10 -4 -11 -207 -218 -908 -925 -719 -725 -644 -643 -650
-718 -5 -59 -6 -62 -35 -68 l-30 -7 33 -1 c30 -1 32 -4 32 -35 0 -19 -6 -37
-12 -39 -10 -4 -10 -6 0 -6 9 -1 12 -31 12 -113 0 -135 6 -150 47 -119 25 20
183 171 183 175 0 1 41 43 91 94 82 84 110 108 94 82 -3 -6 1 -7 10 -4 27 11
108 -16 150 -48 25 -20 33 -24 21 -10 -31 36 -82 63 -131 70 l-45 7 328 333
c337 342 328 335 412 343 15 1 7 4 -20 8 l-45 6 195 200 c107 109 229 233 270
275 41 41 123 126 183 188 l107 113 0 -286 0 -286 25 -24 c22 -23 31 -25 122
-24 122 1 143 7 165 45 17 29 18 70 18 546 0 311 -4 526 -9 541 -21 53 -27 54
-424 60 -260 4 -372 9 -382 17 -8 7 -43 13 -77 15 l-63 4 58 -8z"/>
<path d="M4288 7963 c7 -3 16 -2 19 1 4 3 -2 6 -13 5 -11 0 -14 -3 -6 -6z"/>
<path d="M4412 7927 c18 -4 60 -7 93 -6 33 0 68 1 77 1 10 -1 20 2 22 6 2 4
-47 7 -110 7 -76 0 -104 -3 -82 -8z"/>
<path d="M5015 7690 c-3 -6 1 -7 9 -4 18 7 21 14 7 14 -6 0 -13 -4 -16 -10z"/>
<path d="M4904 7630 c-40 -21 -91 -44 -115 -50 -24 -7 -64 -22 -89 -35 -25
-12 -56 -23 -70 -23 -14 0 -41 -7 -60 -16 -19 -9 -26 -14 -15 -11 11 2 41 5
68 7 26 1 47 6 47 10 0 7 37 26 65 34 64 16 216 86 243 112 22 20 1 12 -74
-28z"/>
<path d="M6510 7610 c-13 -9 -13 -10 0 -10 8 0 22 5 30 10 13 9 13 10 0 10 -8
0 -22 -5 -30 -10z"/>
<path d="M6460 7590 c-8 -5 -10 -10 -5 -10 6 0 17 5 25 10 8 5 11 10 5 10 -5
0 -17 -5 -25 -10z"/>
<path d="M5396 7551 c-4 -5 2 -8 11 -7 9 2 36 -3 60 -10 49 -15 59 -2 12 15
-39 13 -76 14 -83 2z"/>
<path d="M3398 7253 c7 -3 16 -2 19 1 4 3 -2 6 -13 5 -11 0 -14 -3 -6 -6z"/>
<path d="M3320 7166 c0 -2 7 -7 16 -10 8 -3 12 -2 9 4 -6 10 -25 14 -25 6z"/>
<path d="M3115 7126 c-11 -8 -17 -18 -12 -22 4 -4 7 -2 7 4 0 7 5 12 11 12 5
0 7 -6 3 -12 -5 -10 -4 -10 6 -1 21 19 8 36 -15 19z"/>
<path d="M3395 7120 c3 -5 8 -10 11 -10 2 0 4 5 4 10 0 6 -5 10 -11 10 -5 0
-7 -4 -4 -10z"/>
<path d="M3040 7005 c-7 -9 -8 -15 -2 -15 5 0 12 7 16 15 3 8 4 15 2 15 -2 0
-9 -7 -16 -15z"/>
<path d="M6640 6971 c0 -5 5 -13 10 -16 6 -3 10 -2 10 4 0 5 -4 13 -10 16 -5
3 -10 2 -10 -4z"/>
<path d="M7375 6770 c-3 -5 1 -10 9 -10 9 0 16 5 16 10 0 6 -4 10 -9 10 -6 0
-13 -4 -16 -10z"/>
<path d="M6880 6719 c0 -5 5 -7 10 -4 6 3 10 8 10 11 0 2 -4 4 -10 4 -5 0 -10
-5 -10 -11z"/>
<path d="M3801 6707 c2 -2 21 -15 42 -30 20 -16 37 -23 37 -17 0 11 -58 50
-74 50 -5 0 -7 -1 -5 -3z"/>
<path d="M3695 6660 c-16 -11 -25 -20 -20 -20 6 0 24 9 40 20 17 11 26 20 20
20 -5 0 -23 -9 -40 -20z"/>
<path d="M6665 6639 c-4 -6 -5 -12 -2 -15 2 -3 7 2 10 11 7 17 1 20 -8 4z"/>
<path d="M6983 6596 c27 -13 60 -34 75 -47 18 -16 21 -18 12 -5 -24 31 -91 76
-114 76 -14 -1 -5 -9 27 -24z"/>
<path d="M6415 6590 c-22 -5 -74 -10 -115 -11 -60 -1 -67 -3 -35 -8 22 -3 69
-2 105 3 94 12 233 10 259 -4 13 -6 25 -9 28 -7 23 24 -163 45 -242 27z"/>
<path d="M6153 6583 c9 -2 25 -2 35 0 9 3 1 5 -18 5 -19 0 -27 -2 -17 -5z"/>
<path d="M4028 6433 c6 -2 18 -2 25 0 6 3 1 5 -13 5 -14 0 -19 -2 -12 -5z"/>
<path d="M4140 6404 c45 -17 74 -24 64 -14 -5 5 -25 12 -44 15 -19 3 -28 3
-20 -1z"/>
<path d="M4235 6364 c23 -17 95 -38 102 -30 3 3 0 7 -8 10 -116 35 -114 35
-94 20z"/>
<path d="M7178 6095 c-15 -13 -52 -29 -82 -35 -71 -15 -82 -30 -13 -18 58 11
80 21 109 50 28 28 18 31 -14 3z"/>
<path d="M7850 5910 c0 -5 5 -10 10 -10 6 0 10 5 10 10 0 6 -4 10 -10 10 -5 0
-10 -4 -10 -10z"/>
<path d="M7975 5900 c3 -5 11 -10 18 -10 6 0 21 -11 32 -23 20 -24 83 -48 70
-27 -3 5 -12 10 -19 10 -7 0 -27 14 -44 30 -30 28 -71 42 -57 20z"/>
<path d="M4180 5830 c-8 -5 -10 -10 -5 -10 6 0 17 5 25 10 8 5 11 10 5 10 -5
0 -17 -5 -25 -10z"/>
<path d="M4130 5810 c-8 -5 -10 -10 -5 -10 6 0 17 5 25 10 8 5 11 10 5 10 -5
0 -17 -5 -25 -10z"/>
<path d="M2978 5793 c6 -2 18 -2 25 0 6 3 1 5 -13 5 -14 0 -19 -2 -12 -5z"/>
<path d="M4017 5758 c-43 -22 -76 -42 -74 -45 2 -2 42 17 88 42 46 24 80 45
74 45 -5 -1 -45 -19 -88 -42z"/>
<path d="M2940 5730 c-33 -25 -19 -25 22 0 18 11 26 20 18 20 -8 0 -26 -9 -40
-20z"/>
<path d="M2917 5683 c-9 -8 12 -33 27 -33 6 0 3 5 -7 11 -9 6 -15 14 -12 20 7
10 2 12 -8 2z"/>
<path d="M7565 5644 l-30 -13 30 6 c32 6 41 11 34 17 -2 2 -17 -2 -34 -10z"/>
<path d="M2980 5625 c0 -8 4 -15 10 -15 5 0 7 7 4 15 -4 8 -8 15 -10 15 -2 0
-4 -7 -4 -15z"/>
<path d="M2996 5583 c-6 -14 -5 -15 5 -6 7 7 10 15 7 18 -3 3 -9 -2 -12 -12z"/>
<path d="M2721 5506 c12 -10 60 -16 54 -6 -3 5 -18 10 -32 10 -15 0 -24 -2
-22 -4z"/>
<path d="M7386 5451 c-3 -5 3 -11 15 -14 16 -4 18 -3 8 9 -13 16 -16 17 -23 5z"/>
<path d="M7750 5393 c-47 -49 -21 -33 33 20 10 9 22 17 27 17 6 0 10 5 10 10
0 19 -15 9 -70 -47z"/>
<path d="M2278 5373 c7 -3 16 -2 19 1 4 3 -2 6 -13 5 -11 0 -14 -3 -6 -6z"/>
<path d="M2662 5368 c-7 -7 -12 -17 -12 -24 0 -6 -11 -28 -25 -48 -27 -39 -32
-71 -14 -82 8 -4 7 -9 -2 -15 -11 -7 -10 -9 4 -9 19 0 21 4 8 29 -11 20 14 82
47 119 19 22 21 22 32 5 11 -17 11 -17 6 0 -3 10 -6 23 -6 28 0 13 -24 11 -38
-3z"/>
<path d="M2381 5346 c46 -18 121 -24 126 -11 2 6 -17 10 -44 10 -27 0 -64 3
-83 8 l-35 7 36 -14z"/>
<path d="M6244 5344 c22 -8 41 -12 44 -9 6 6 -45 25 -66 24 -9 0 1 -7 22 -15z"/>
<path d="M5585 5330 c-3 -6 1 -7 9 -4 18 7 21 14 7 14 -6 0 -13 -4 -16 -10z"/>
<path d="M7669 5313 c-13 -16 -12 -17 4 -4 16 13 21 21 13 21 -2 0 -10 -8 -17
-17z"/>
<path d="M2711 5304 c0 -11 3 -14 6 -6 3 7 2 16 -1 19 -3 4 -6 -2 -5 -13z"/>
<path d="M5830 5301 c0 -5 11 -8 25 -8 14 0 25 3 25 8 0 5 -11 9 -25 9 -14 0
-25 -4 -25 -9z"/>
<path d="M7622 5267 c-12 -13 -22 -34 -21 -48 1 -23 1 -23 7 -2 4 12 17 33 29
47 28 32 14 35 -15 3z"/>
<path d="M2730 5201 c0 -14 18 -23 31 -15 8 4 7 9 -2 15 -18 11 -29 11 -29 0z"/>
<path d="M6610 5173 c-19 -8 -52 -18 -75 -23 -37 -7 -38 -8 -8 -9 17 -1 53 8
80 20 26 11 58 18 70 16 12 -2 20 0 17 4 -8 13 -44 9 -84 -8z"/>
<path d="M7610 5162 c-8 -15 -28 -42 -45 -61 l-30 -35 28 22 29 21 41 -26 c76
-47 97 -64 92 -74 -4 -5 1 -9 9 -9 29 0 -5 39 -66 77 -59 37 -66 49 -47 85 6
11 9 22 6 24 -2 2 -10 -8 -17 -24z"/>
<path d="M2515 5110 c3 -5 8 -10 11 -10 2 0 4 5 4 10 0 6 -5 10 -11 10 -5 0
-7 -4 -4 -10z"/>
<path d="M2800 5047 c0 -17 26 -47 41 -47 19 0 7 25 -23 49 -16 12 -18 11 -18
-2z"/>
<path d="M6737 5053 c-14 -13 -7 -25 8 -13 8 7 22 10 30 6 8 -3 15 -1 15 4 0
11 -43 14 -53 3z"/>
<path d="M6821 4988 c0 -13 3 -18 5 -11 3 7 31 -2 81 -28 41 -21 70 -33 64
-25 -6 7 -42 29 -81 50 -68 35 -70 36 -69 14z"/>
<path d="M7810 4938 c0 -5 14 -8 30 -8 17 0 30 4 30 9 0 5 -13 8 -30 7 -16 0
-30 -4 -30 -8z"/>
<path d="M3075 4910 c10 -11 20 -20 23 -20 3 0 -3 9 -13 20 -10 11 -20 20 -23
20 -3 0 3 -9 13 -20z"/>
<path d="M3417 4892 c-81 -2 -108 -6 -104 -15 2 -7 53 -131 112 -277 59 -146
123 -304 143 -353 19 -48 33 -90 29 -93 -3 -3 -29 1 -59 9 -65 18 -132 22
-123 7 3 -5 25 -10 48 -10 61 -1 150 -24 155 -41 3 -8 25 -65 49 -127 25 -62
43 -115 40 -118 -8 -8 -108 67 -101 77 3 5 -2 6 -10 3 -8 -3 -24 0 -36 6 -42
23 -87 19 -121 -10 -30 -24 -33 -33 -36 -91 -2 -35 -5 -73 -7 -84 -3 -11 -5
-32 -5 -47 -1 -17 -15 -43 -37 -68 -40 -44 -58 -115 -33 -131 9 -6 10 -12 4
-16 -6 -5 -10 -14 -9 -20 1 -7 2 -21 3 -30 1 -15 3 -16 10 -3 6 8 7 18 5 22
-3 4 -2 14 3 21 9 14 11 22 19 65 6 28 4 31 -12 25 -17 -6 -17 -5 -5 10 7 9
18 14 25 10 6 -3 8 -3 4 1 -4 5 2 17 13 29 10 11 19 31 19 44 0 13 5 23 10 23
6 0 10 14 10 30 0 20 5 30 15 30 8 0 12 6 9 14 -3 8 -12 12 -19 10 -9 -4 -12
1 -10 13 2 10 4 26 4 36 1 12 5 16 14 11 9 -6 9 -4 -1 8 -18 23 10 80 35 71
12 -5 14 -3 8 8 -6 11 -5 12 6 2 7 -7 22 -13 33 -13 12 0 32 -12 45 -26 13
-13 29 -23 35 -21 16 6 48 -12 41 -24 -4 -5 -1 -8 6 -7 6 2 14 -3 16 -9 3 -7
-2 -13 -11 -13 -9 0 -16 -4 -16 -10 0 -5 5 -10 11 -10 8 0 8 -5 -1 -15 -7 -8
-8 -15 -3 -15 16 0 50 -34 57 -57 4 -13 10 -22 14 -20 10 3 63 -51 60 -60 -2
-5 7 -9 18 -11 18 -3 14 5 -23 45 -81 86 -105 143 -62 143 16 0 20 4 15 18 -5
14 -3 13 9 -3 9 -11 18 -30 22 -42 5 -22 10 -23 103 -23 l99 0 12 34 c11 30
15 33 31 25 15 -8 23 -5 38 13 23 28 26 46 4 24 -14 -14 -54 -23 -54 -11 0 2
8 26 18 52 11 26 22 57 26 67 6 18 8 18 34 -7 16 -15 32 -27 36 -27 4 0 -6 12
-23 26 -17 14 -31 31 -31 38 0 7 15 48 34 92 18 43 66 165 106 269 41 105 102
262 137 349 34 88 62 161 60 162 -1 1 -51 4 -111 5 l-110 4 -27 -80 c-25 -75
-66 -188 -200 -557 -55 -151 -64 -164 -102 -135 -9 6 -34 62 -55 122 -91 256
-225 621 -236 640 -10 18 -20 20 -119 17z m451 -807 c2 -2 -2 -15 -10 -29
l-13 -25 -11 34 c-11 34 -10 35 10 29 12 -4 22 -8 24 -9z m-184 -255 c-6 -5
-24 21 -24 34 0 6 6 1 14 -10 8 -10 12 -21 10 -24z"/>
<path d="M1540 4325 l0 -555 350 0 350 0 0 90 0 90 -250 0 -250 0 0 465 0 465
-100 0 -100 0 0 -555z"/>
<path d="M5519 4878 c0 -2 -2 -252 -4 -555 l-3 -553 349 0 349 0 0 90 0 90
-250 0 -250 0 1 463 0 462 -95 3 c-53 1 -96 1 -97 0z"/>
<path d="M6767 4483 c5 -406 7 -423 47 -514 6 -13 -2 -19 -40 -28 -26 -7 -56
-19 -68 -27 -29 -20 -79 -17 -137 7 -40 17 -52 19 -64 9 -21 -17 -19 -29 4
-27 11 0 17 7 14 14 -3 8 6 7 29 -5 46 -23 129 -20 207 8 63 22 65 22 78 4 13
-18 11 -19 -31 -24 -25 -3 -48 -9 -52 -13 -10 -10 35 -9 73 2 27 8 34 6 57
-18 15 -15 24 -30 21 -34 -3 -4 -2 -5 1 -2 4 2 19 -2 35 -11 l29 -14 -29 -28
c-31 -29 -50 -72 -32 -72 6 0 11 9 11 19 0 26 58 74 79 65 67 -27 133 -36 246
-31 157 6 218 28 296 106 106 107 116 165 111 696 l-2 315 -100 0 -99 0 -3
-392 -3 -393 -25 -45 c-16 -28 -43 -55 -74 -74 -44 -28 -56 -30 -135 -31 -126
0 -185 35 -221 132 -19 50 -20 78 -20 428 l0 375 -104 0 -105 0 6 -397z"/>
<path d="M7930 4323 l0 -553 95 0 95 0 0 190 0 190 119 0 c194 0 303 31 381
109 68 68 93 128 98 236 5 121 -19 187 -97 266 -98 98 -203 122 -503 117
l-188 -3 0 -552z m475 343 c80 -34 115 -88 115 -177 0 -64 -21 -109 -63 -134
-27 -17 -55 -21 -184 -23 l-153 -4 0 182 0 183 123 -5 c83 -4 135 -11 162 -22z"/>
<path d="M2450 4320 l0 -550 355 0 355 0 0 90 0 90 -255 0 -255 0 0 140 0 141
148 -1 c81 -1 182 -1 225 0 l77 0 0 95 0 95 -137 0 -138 0 -85 61 c-46 34 -79
55 -73 47 7 -7 37 -32 67 -53 31 -22 56 -43 56 -47 0 -5 -31 -8 -70 -8 l-70 0
0 135 0 135 33 0 c20 0 54 -13 87 -35 30 -19 61 -35 68 -35 7 0 11 -3 9 -7 -3
-5 6 -9 19 -9 13 -1 24 0 24 1 0 2 -24 15 -52 28 -29 14 -62 32 -73 41 -19 15
-15 16 60 15 44 -1 86 -6 93 -11 8 -7 12 -7 12 1 0 7 38 11 120 11 l120 0 -1
90 -1 90 -359 0 -359 0 0 -550z"/>
<path d="M4538 4320 l2 -550 360 0 360 0 0 90 0 90 -260 0 -260 0 0 140 0 140
230 0 230 0 0 95 0 95 -229 0 -230 0 0 135 -1 135 265 0 265 0 0 90 0 90 -367
0 -368 0 3 -550z"/>
<path d="M3298 4813 c7 -3 16 -2 19 1 4 3 -2 6 -13 5 -11 0 -14 -3 -6 -6z"/>
<path d="M2931 4652 c-1 -14 37 -92 44 -92 3 0 -3 17 -13 38 -11 20 -22 44
-25 52 -4 10 -6 11 -6 2z"/>
<path d="M5063 4600 c-18 -11 -33 -22 -33 -25 0 -3 12 3 27 12 15 10 54 21 88
24 l60 6 -55 1 c-39 1 -64 -4 -87 -18z"/>
<path d="M5188 4563 c6 -2 18 -2 25 0 6 3 1 5 -13 5 -14 0 -19 -2 -12 -5z"/>
<path d="M7397 4533 c-13 -13 -7 -33 11 -33 14 0 15 2 2 10 -13 8 -12 10 3 10
10 0 15 5 12 10 -7 12 -19 13 -28 3z"/>
<path d="M4910 4505 c160 -29 202 -31 105 -6 -38 10 -108 21 -155 24 -83 5
-82 5 50 -18z"/>
<path d="M3960 4510 c-9 -6 -10 -10 -3 -10 6 0 15 5 18 10 8 12 4 12 -15 0z"/>
<path d="M7350 4510 c-8 -5 -10 -10 -5 -10 6 0 17 5 25 10 8 5 11 10 5 10 -5
0 -17 -5 -25 -10z"/>
<path d="M5098 4473 c7 -3 16 -2 19 1 4 3 -2 6 -13 5 -11 0 -14 -3 -6 -6z"/>
<path d="M7345 4429 c-4 -6 -5 -12 -2 -15 2 -3 7 2 10 11 7 17 1 20 -8 4z"/>
<path d="M3268 4323 c7 -3 16 -2 19 1 4 3 -2 6 -13 5 -11 0 -14 -3 -6 -6z"/>
<path d="M2930 4191 c0 -5 3 -17 6 -26 6 -13 9 -14 16 -3 7 9 8 7 5 -9 -3 -13
-1 -23 3 -23 17 0 15 35 -2 52 -20 20 -28 22 -28 9z"/>
<path d="M7235 4159 c-4 -6 -5 -12 -2 -15 2 -3 7 2 10 11 7 17 1 20 -8 4z"/>
<path d="M7384 4107 c-70 -75 -96 -108 -91 -113 3 -3 19 14 38 38 18 24 51 62
73 86 22 23 38 42 35 42 -4 0 -28 -24 -55 -53z"/>
<path d="M6260 4070 c0 -9 35 -20 64 -20 11 0 17 3 13 6 -10 10 -77 22 -77 14z"/>
<path d="M7770 4062 c0 -6 -30 -43 -66 -82 -69 -73 -79 -89 -24 -42 40 34 104
121 96 129 -3 4 -6 1 -6 -5z"/>
<path d="M6648 4003 c7 -3 16 -2 19 1 4 3 -2 6 -13 5 -11 0 -14 -3 -6 -6z"/>
<path d="M6294 3908 c-16 -18 -20 -25 -9 -16 11 9 27 18 35 19 22 5 70 -10 70
-21 0 -6 17 -10 38 -9 32 1 34 2 12 8 -14 5 -44 18 -67 29 -23 12 -44 22 -46
22 -2 0 -16 -15 -33 -32z"/>
<path d="M3517 3909 c7 -7 15 -10 18 -7 3 3 -2 9 -12 12 -14 6 -15 5 -6 -5z"/>
<path d="M6707 3883 c-2 -2 -39 -8 -83 -13 -99 -13 -184 -32 -184 -42 0 -5 -6
-8 -13 -8 -16 0 -47 -36 -47 -55 0 -10 8 -7 26 10 27 25 37 29 63 26 7 -2 11
2 7 7 -3 5 45 19 107 31 62 12 119 24 127 26 8 2 18 4 23 4 4 1 7 5 7 9 0 8
-26 12 -33 5z"/>
<path d="M3596 3862 c-3 -5 1 -9 9 -9 8 0 12 4 9 9 -3 4 -7 8 -9 8 -2 0 -6 -4
-9 -8z"/>
<path d="M3595 3831 c-3 -5 -1 -12 5 -16 5 -3 10 1 10 9 0 18 -6 21 -15 7z"/>
<path d="M4300 3810 c0 -5 5 -10 10 -10 6 0 10 5 10 10 0 6 -4 10 -10 10 -5 0
-10 -4 -10 -10z"/>
<path d="M4392 3809 c2 -6 7 -9 11 -7 3 2 14 -7 22 -19 9 -13 23 -23 31 -23 8
0 14 -4 14 -10 0 -5 5 -10 12 -10 6 0 26 -11 45 -26 18 -14 33 -21 33 -15 0 6
-31 30 -69 55 -38 24 -72 49 -75 55 -9 14 -29 14 -24 0z"/>
<path d="M7478 3744 c-52 -33 -48 -38 7 -7 43 23 54 34 38 32 -5 0 -25 -11
-45 -25z"/>
<path d="M5759 3722 c-56 -36 -117 -89 -130 -114 -9 -17 -8 -18 10 -6 12 7 21
16 21 20 0 5 7 8 15 8 8 0 15 9 15 20 0 21 20 29 20 8 1 -7 7 -1 15 14 8 14
31 36 50 48 30 19 42 30 32 30 -2 0 -23 -13 -48 -28z"/>
<path d="M7040 3740 c-9 -6 -10 -10 -3 -10 6 0 15 5 18 10 8 12 4 12 -15 0z"/>
<path d="M6345 3712 c-13 -8 -17 -52 -6 -52 5 0 11 14 13 30 3 17 4 30 4 30
-1 0 -6 -4 -11 -8z"/>
<path d="M6053 3693 c25 -6 21 -23 -5 -24 l-23 0 23 -9 c12 -5 29 -7 38 -3 9
3 20 0 25 -8 5 -8 9 -9 9 -4 -1 21 -28 45 -56 49 -16 2 -21 1 -11 -1z"/>
<path d="M3960 3658 c-22 -11 -39 -22 -37 -24 2 -3 17 2 33 11 35 18 58 19 87
3 19 -10 20 -9 9 4 -21 26 -49 27 -92 6z"/>
<path d="M6371 3664 c0 -11 3 -14 6 -6 3 7 2 16 -1 19 -3 4 -6 -2 -5 -13z"/>
<path d="M3575 3650 c3 -5 8 -10 11 -10 2 0 4 5 4 10 0 6 -5 10 -11 10 -5 0
-7 -4 -4 -10z"/>
<path d="M6020 3640 c0 -5 7 -7 15 -4 8 4 15 8 15 10 0 2 -7 4 -15 4 -8 0 -15
-4 -15 -10z"/>
<path d="M6340 3640 c0 -5 5 -10 10 -10 6 0 10 5 10 10 0 6 -4 10 -10 10 -5 0
-10 -4 -10 -10z"/>
<path d="M6124 3612 c-6 -9 -38 -28 -70 -41 -32 -13 -79 -40 -104 -59 -25 -20
-46 -36 -48 -37 -1 -1 1 -10 4 -20 6 -15 9 -16 18 -3 13 18 99 73 184 118 65
34 73 44 46 54 -20 8 -18 9 -30 -12z"/>
<path d="M3528 3613 c6 -2 10 -9 7 -13 -3 -5 0 -12 6 -16 8 -4 9 -3 5 4 -10
16 6 15 24 0 8 -7 6 -3 -4 10 -11 12 -26 22 -35 21 -10 0 -12 -2 -3 -6z"/>
<path d="M3788 3603 c7 -3 16 -2 19 1 4 3 -2 6 -13 5 -11 0 -14 -3 -6 -6z"/>
<path d="M3495 3590 c3 -5 8 -10 11 -10 2 0 4 5 4 10 0 6 -5 10 -11 10 -5 0
-7 -4 -4 -10z"/>
<path d="M3730 3590 c0 -5 7 -7 15 -4 8 4 15 8 15 10 0 2 -7 4 -15 4 -8 0 -15
-4 -15 -10z"/>
<path d="M6253 3584 c-17 -7 -34 -18 -38 -23 -3 -6 11 -3 31 5 50 21 86 11
106 -29 9 -18 32 -84 52 -148 43 -138 61 -160 139 -167 100 -8 280 38 346 89
31 25 20 24 -30 -1 -43 -22 -196 -65 -270 -75 -54 -8 -114 15 -124 46 -4 10
-10 19 -15 19 -11 0 -70 200 -70 239 0 27 -38 61 -68 60 -15 0 -41 -7 -59 -15z"/>
<path d="M5748 3573 c6 -2 18 -2 25 0 6 3 1 5 -13 5 -14 0 -19 -2 -12 -5z"/>
<path d="M5931 3545 c-41 -33 -44 -43 -7 -29 9 3 13 10 10 15 -3 5 3 9 13 9
10 0 24 9 31 20 18 29 3 24 -47 -15z"/>
<path d="M3800 3545 c26 -15 115 -21 123 -7 3 4 -9 7 -26 7 -18 0 -52 4 -77 8
-43 6 -44 6 -20 -8z"/>
<path d="M5680 3547 c0 -7 -9 -18 -20 -25 -17 -10 -25 -9 -49 9 -27 20 -33 20
-80 9 -28 -6 -48 -16 -45 -21 5 -8 -9 -13 -28 -10 -5 0 -8 -4 -8 -9 0 -6 -6
-10 -12 -9 -31 4 -40 -3 -58 -43 -21 -47 -28 -120 -9 -101 6 6 11 17 12 24 2
8 6 20 10 27 11 17 130 95 122 79 -4 -6 1 -3 9 7 9 11 19 17 22 13 3 -3 17 -2
30 3 15 6 26 6 30 -1 3 -6 16 -9 27 -7 31 3 54 -11 36 -23 -11 -6 -11 -10 -1
-19 6 -5 10 -7 7 -3 -8 10 26 43 44 43 14 0 14 -2 1 -10 -12 -7 -8 -10 15 -11
25 0 27 -2 10 -8 -16 -7 -10 -10 28 -16 26 -4 50 -11 53 -16 3 -5 16 -9 30 -9
15 0 24 -6 24 -16 0 -9 12 -29 28 -45 15 -16 27 -35 27 -42 0 -6 10 -13 22
-13 21 -1 21 0 -7 26 -16 15 -31 42 -35 62 -9 47 -35 74 -88 90 -23 6 -60 27
-81 45 -41 34 -66 42 -66 20z m10 -47 c0 -5 -4 -10 -10 -10 -5 0 -10 5 -10 10
0 6 5 10 10 10 6 0 10 -4 10 -10z"/>
<path d="M3733 3535 c0 -8 4 -12 8 -10 4 3 24 -11 45 -29 24 -22 43 -31 48
-26 5 6 8 11 5 13 -13 11 -98 67 -102 67 -2 0 -4 -7 -4 -15z"/>
<path d="M3599 3509 c23 -16 67 -46 98 -66 43 -27 52 -37 42 -45 -11 -8 -10
-8 4 -4 10 3 23 6 28 6 6 0 -37 32 -95 70 -105 71 -155 96 -77 39z"/>
<path d="M3975 3470 c3 -5 8 -10 11 -10 2 0 4 5 4 10 0 6 -5 10 -11 10 -5 0
-7 -4 -4 -10z"/>
<path d="M3300 3429 c0 -25 56 -96 102 -129 32 -24 51 -30 87 -29 l46 1 -40 9
c-82 19 -144 65 -179 134 -9 17 -16 23 -16 14z"/>
<path d="M3610 3396 c0 -2 11 -6 25 -8 13 -3 22 -1 19 3 -5 9 -44 13 -44 5z"/>
<path d="M4665 3390 c3 -5 8 -10 11 -10 2 0 4 5 4 10 0 6 -5 10 -11 10 -5 0
-7 -4 -4 -10z"/>
<path d="M6990 3385 c-7 -8 -18 -15 -26 -15 -7 0 -16 -4 -19 -10 -3 -5 0 -10
7 -10 17 1 64 37 57 45 -3 3 -12 -1 -19 -10z"/>
<path d="M3535 3349 c-22 -10 -38 -18 -35 -19 3 -1 25 -3 49 -4 23 -2 47 -9
51 -16 5 -7 10 -8 14 -2 3 5 -1 13 -9 16 -9 3 -19 14 -23 24 -7 18 -8 18 -47
1z"/>
<path d="M6175 3335 c-30 -13 -30 -13 10 -8 46 7 51 9 33 16 -8 2 -27 -1 -43
-8z"/>
<path d="M4235 3310 c-3 -5 -2 -10 4 -10 5 0 13 5 16 10 3 6 2 10 -4 10 -5 0
-13 -4 -16 -10z"/>
<path d="M4731 3278 c23 -23 53 -41 80 -48 24 -6 69 -22 99 -35 30 -13 72 -27
93 -30 45 -9 55 -20 24 -30 -12 -4 -42 -13 -67 -21 -43 -13 -40 -14 70 -9 63
2 116 4 118 5 1 0 2 5 2 10 0 6 -8 10 -17 10 -10 0 -42 11 -71 25 -30 14 -64
25 -76 25 -13 0 -45 11 -72 25 -27 14 -73 32 -103 40 -30 7 -68 26 -85 42 -19
17 -17 13 5 -9z"/>
<path d="M5405 3310 c-3 -6 1 -7 9 -4 18 7 21 14 7 14 -6 0 -13 -4 -16 -10z"/>
<path d="M6085 3305 c-22 -8 -52 -14 -67 -14 -16 -1 -27 -5 -25 -9 4 -14 -55
-59 -129 -98 -38 -21 -71 -40 -74 -44 -26 -33 -58 -40 -181 -40 l-126 0 -24
34 c-67 94 -115 155 -121 155 -23 2 -1 -44 47 -98 79 -88 76 -93 -44 -89 -55
2 -97 0 -94 -4 2 -5 29 -8 59 -8 l54 0 0 -40 0 -40 75 0 75 0 0 -235 0 -235
45 0 45 0 0 213 0 212 53 1 c28 1 75 2 102 2 28 0 57 0 65 0 22 0 138 80 150
103 13 23 -2 25 -21 2 -20 -23 -65 -40 -131 -48 l-58 -7 0 34 c0 26 8 42 33
65 34 32 127 86 135 79 2 -3 -6 -20 -18 -38 l-22 -33 27 29 c14 15 24 33 22
39 -8 24 64 75 134 96 38 12 69 24 69 26 0 7 -8 5 -55 -10z m-390 -305 c-3 -5
-24 -10 -46 -10 -21 0 -39 5 -39 10 0 6 21 10 46 10 27 0 43 -4 39 -10z"/>
<path d="M3625 3290 c3 -5 8 -10 11 -10 2 0 4 5 4 10 0 6 -5 10 -11 10 -5 0
-7 -4 -4 -10z"/>
<path d="M5365 3270 c3 -5 8 -10 11 -10 2 0 4 5 4 10 0 6 -5 10 -11 10 -5 0
-7 -4 -4 -10z"/>
<path d="M4138 3257 c-7 -7 -37 -34 -66 -60 l-53 -47 59 0 c59 0 60 1 123 60
l64 59 -57 1 c-34 0 -62 -5 -70 -13z"/>
<path d="M5190 3130 c-9 -6 -10 -10 -3 -10 6 0 15 5 18 10 8 12 4 12 -15 0z"/>
<path d="M4838 3112 c-17 -3 -20 -10 -151 -357 -91 -240 -89 -217 -26 -213
l52 3 16 50 16 50 116 3 116 3 20 -53 20 -53 53 -3 c47 -3 52 -1 45 15 -22 56
-189 493 -198 521 -9 27 -15 33 -34 29 -12 -2 -24 -1 -25 2 -2 4 -11 5 -20 3z
m102 -364 c0 -5 -36 -8 -81 -8 -73 0 -80 2 -74 18 3 9 22 66 42 126 l35 110
39 -120 c21 -65 39 -122 39 -126z"/>
<path d="M2500 3091 c-177 -63 -226 -320 -89 -476 47 -54 99 -75 184 -75 110
0 191 51 230 143 l15 37 -52 0 c-48 -1 -55 -4 -73 -33 -26 -40 -59 -57 -115
-57 -62 0 -110 28 -137 80 -33 62 -33 192 0 241 33 50 80 71 147 66 49 -4 58
-8 91 -45 33 -38 41 -42 83 -42 56 0 58 10 14 76 -62 91 -183 126 -298 85z"/>
<path d="M6712 3092 c-107 -39 -165 -131 -166 -262 -1 -66 4 -85 32 -142 50
-103 127 -150 240 -149 145 1 240 93 258 249 10 93 -27 199 -91 255 -71 62
-181 82 -273 49z m175 -93 c52 -25 72 -59 84 -146 12 -82 -1 -132 -45 -181
-31 -33 -39 -36 -97 -40 -54 -3 -69 0 -99 20 -19 13 -45 43 -58 68 -20 38 -23
57 -20 125 2 65 7 86 27 114 44 62 129 78 208 40z"/>
<path d="M7420 2825 l0 -285 51 0 50 0 -3 205 c-2 113 -2 205 -1 205 1 0 10
-15 19 -32 9 -18 66 -111 127 -205 l110 -173 48 0 49 0 0 279 0 280 -22 3
c-13 2 -36 1 -51 -1 l-28 -3 3 -199 c2 -110 2 -199 1 -199 -1 0 -26 39 -56 88
-30 48 -86 136 -126 195 -39 60 -71 113 -71 118 0 5 -22 9 -50 9 l-50 0 0
-285z"/>
<path d="M3183 2934 c4 -92 7 -218 7 -281 l0 -113 50 0 49 0 3 103 3 102 41 3
42 3 51 -105 51 -106 60 0 61 0 -17 33 c-9 17 -37 67 -61 110 l-43 77 34 31
c43 38 60 86 53 155 -6 62 -26 96 -76 126 -32 20 -51 23 -175 26 l-139 4 6
-168z m258 47 c34 -35 39 -86 11 -121 -15 -18 -31 -23 -89 -27 l-72 -6 -3 92
-3 91 63 0 c57 0 67 -3 93 -29z"/>
<path d="M3950 2820 l0 -280 180 0 180 0 0 48 0 47 -128 0 -127 1 -3 67 -3 67
116 0 115 0 0 50 0 50 -115 0 -115 0 0 70 0 70 130 0 130 0 0 45 0 45 -180 0
-180 0 0 -280z"/>
<path d="M6100 2820 l0 -280 45 0 45 0 1 183 c1 100 3 226 4 280 l4 97 -50 0
-49 0 0 -280z"/>
<path d="M5770 2854 c-31 -8 -37 -13 -20 -13 14 0 39 6 55 14 37 17 24 16 -35
-1z"/>
</g>
</svg>
